<svg xmlns="http://www.w3.org/2000/svg" width="130" height="130" viewBox="0 0 130 130"><g transform="translate(-1670 -542)"><circle cx="5" cy="5" r="5" transform="translate(1670 542)" fill="#f5f5f5"></circle><circle cx="5" cy="5" r="5" transform="translate(1690 542)" fill="#f5f5f5"></circle><circle cx="5" cy="5" r="5" transform="translate(1710 542)" fill="#f5f5f5"></circle><circle cx="5" cy="5" r="5" transform="translate(1730 542)" fill="#f5f5f5"></circle><circle cx="5" cy="5" r="5" transform="translate(1750 542)" fill="#f5f5f5"></circle><circle cx="5" cy="5" r="5" transform="translate(1770 542)" fill="#f5f5f5"></circle><circle cx="5" cy="5" r="5" transform="translate(1790 542)" fill="#f5f5f5"></circle><circle cx="5" cy="5" r="5" transform="translate(1670 562)" fill="#f5f5f5"></circle><circle cx="5" cy="5" r="5" transform="translate(1690 562)" fill="#f5f5f5"></circle><circle cx="5" cy="5" r="5" transform="translate(1710 562)" fill="#f5f5f5"></circle><circle cx="5" cy="5" r="5" transform="translate(1730 562)" fill="#f5f5f5"></circle><circle cx="5" cy="5" r="5" transform="translate(1750 562)" fill="#f5f5f5"></circle><circle cx="5" cy="5" r="5" transform="translate(1770 562)" fill="#f5f5f5"></circle><circle cx="5" cy="5" r="5" transform="translate(1790 562)" fill="#f5f5f5"></circle><circle cx="5" cy="5" r="5" transform="translate(1670 582)" fill="#f5f5f5"></circle><circle cx="5" cy="5" r="5" transform="translate(1690 582)" fill="#f5f5f5"></circle><circle cx="5" cy="5" r="5" transform="translate(1710 582)" fill="#f5f5f5"></circle><circle cx="5" cy="5" r="5" transform="translate(1730 582)" fill="#f5f5f5"></circle><circle cx="5" cy="5" r="5" transform="translate(1750 582)" fill="#f5f5f5"></circle><circle cx="5" cy="5" r="5" transform="translate(1770 582)" fill="#f5f5f5"></circle><circle cx="5" cy="5" r="5" transform="translate(1790 582)" fill="#f5f5f5"></circle><circle cx="5" cy="5" r="5" transform="translate(1670 602)" fill="#f5f5f5"></circle><circle cx="5" cy="5" r="5" transform="translate(1690 602)" fill="#f5f5f5"></circle><circle cx="5" cy="5" r="5" transform="translate(1710 602)" fill="#f5f5f5"></circle><circle cx="5" cy="5" r="5" transform="translate(1730 602)" fill="#f5f5f5"></circle><circle cx="5" cy="5" r="5" transform="translate(1750 602)" fill="#f5f5f5"></circle><circle cx="5" cy="5" r="5" transform="translate(1770 602)" fill="#f5f5f5"></circle><circle cx="5" cy="5" r="5" transform="translate(1790 602)" fill="#f5f5f5"></circle><circle cx="5" cy="5" r="5" transform="translate(1670 622)" fill="#f5f5f5"></circle><circle cx="5" cy="5" r="5" transform="translate(1690 622)" fill="#f5f5f5"></circle><circle cx="5" cy="5" r="5" transform="translate(1710 622)" fill="#f5f5f5"></circle><circle cx="5" cy="5" r="5" transform="translate(1730 622)" fill="#f5f5f5"></circle><circle cx="5" cy="5" r="5" transform="translate(1750 622)" fill="#f5f5f5"></circle><circle cx="5" cy="5" r="5" transform="translate(1770 622)" fill="#f5f5f5"></circle><circle cx="5" cy="5" r="5" transform="translate(1790 622)" fill="#f5f5f5"></circle><circle cx="5" cy="5" r="5" transform="translate(1670 642)" fill="#f5f5f5"></circle><circle cx="5" cy="5" r="5" transform="translate(1690 642)" fill="#f5f5f5"></circle><circle cx="5" cy="5" r="5" transform="translate(1710 642)" fill="#f5f5f5"></circle><circle cx="5" cy="5" r="5" transform="translate(1730 642)" fill="#f5f5f5"></circle><circle cx="5" cy="5" r="5" transform="translate(1750 642)" fill="#f5f5f5"></circle><circle cx="5" cy="5" r="5" transform="translate(1770 642)" fill="#f5f5f5"></circle><circle cx="5" cy="5" r="5" transform="translate(1790 642)" fill="#f5f5f5"></circle><circle cx="5" cy="5" r="5" transform="translate(1670 662)" fill="#f5f5f5"></circle><circle cx="5" cy="5" r="5" transform="translate(1690 662)" fill="#f5f5f5"></circle><circle cx="5" cy="5" r="5" transform="translate(1710 662)" fill="#f5f5f5"></circle><circle cx="5" cy="5" r="5" transform="translate(1730 662)" fill="#f5f5f5"></circle><circle cx="5" cy="5" r="5" transform="translate(1750 662)" fill="#f5f5f5"></circle><circle cx="5" cy="5" r="5" transform="translate(1770 662)" fill="#f5f5f5"></circle><circle cx="5" cy="5" r="5" transform="translate(1790 662)" fill="#f5f5f5"></circle></g></svg>